<svg width="51" height="59" viewBox="0 0 51 59" fill="none" xmlns="http://www.w3.org/2000/svg">
<g id="Icon" clip-path="url(#clip0_57_631)">
<path id="Vector" d="M7.70117 58.7164H39.5102C41.7192 58.7164 43.5102 56.7564 43.5102 54.3391V32.4512H3.70117V54.3391C3.70117 56.7564 5.49217 58.7164 7.70117 58.7164Z" fill="#FFFEFE"/>
<path id="Vector_2" d="M1.2168 24.3346V30.2101H45.9998V24.3346C45.9998 21.9172 44.2088 19.9573 41.9998 19.9573H30.2908C35.8518 19.9573 43.8478 14.0511 42.0958 7.7882C40.6328 2.55616 36.2418 -0.0899487 31.7548 -0.0593072C25.4198 -0.019911 23.7778 14.514 23.7778 14.514H23.6078C23.6078 14.514 21.9668 -0.019911 15.6308 -0.0593072C11.1428 -0.0899487 6.7528 2.55616 5.2898 7.7882C3.5368 14.0511 11.5338 19.9573 17.0968 19.9573H5.2168C3.0078 19.9573 1.2168 21.9172 1.2168 24.3346ZM36.4138 5.22307C36.4138 5.22307 36.2178 12.3757 27.4348 17.7171C27.4358 17.7171 29.0948 8.53454 36.4138 5.22307ZM11.0458 5.22307C18.3628 8.53345 20.0218 17.7171 20.0218 17.7171C11.2408 12.3757 11.0458 5.22307 11.0458 5.22307Z" fill="#FFFEFE"/>
</g>
<defs>
<clipPath id="clip0_57_631">
<rect width="50" height="58" fill="white" transform="translate(0.755859 0.328125)"/>
</clipPath>
</defs>
</svg>
