<svg width="45" height="53" viewBox="0 0 45 53" fill="none" xmlns="http://www.w3.org/2000/svg">
<path id="Icon" fill-rule="evenodd" clip-rule="evenodd" d="M24.7902 0.832717C25.7649 1.24757 26.5431 2.12423 41.4843 15.8723C43.2078 17.4585 44.1971 19.7158 44.197 22.0668V47.0594C44.197 50.0041 41.8133 52.4009 38.8838 52.4009H6.06912C3.13964 52.4009 0.755859 50.0041 0.755859 47.0594V22.0668C0.755859 19.7158 1.74506 17.4585 3.46974 15.8723L18.8082 1.75869C20.3468 0.343297 22.5742 -0.0449769 24.4462 0.697579C24.5755 0.747834 24.684 0.787537 24.7902 0.832717ZM22.8404 9.07312C21.8658 8.89021 20.9946 9.56468 20.8956 10.5144C20.8142 11.3156 21.3402 12.0985 22.202 12.2782C23.1042 12.4476 23.9391 11.8823 24.1237 10.9949C24.2975 10.1619 23.7725 9.26748 22.8404 9.07312ZM14.3077 19.5001C11.4686 19.5001 9.15886 22.0657 9.15886 25.2196C9.15886 28.3735 11.4686 30.9402 14.3077 30.9402C17.1479 30.9402 19.4576 28.3735 19.4576 25.2196C19.4576 22.0657 17.148 19.5001 14.3077 19.5001ZM17.0216 40.3463C16.5664 41.4294 17.3724 42.6134 18.5272 42.6134C19.1667 42.6134 19.7724 42.2365 20.035 41.6112L27.9913 22.6507C28.3399 21.8184 27.9488 20.8597 27.1165 20.5111C26.2842 20.1614 25.3266 20.5535 24.9768 21.3859L17.0216 40.3463ZM25.649 38.1838C25.649 41.3377 27.9586 43.9033 30.7978 43.9033C33.6369 43.9033 35.9476 41.3377 35.9476 38.1838C35.9476 35.0299 33.6369 32.4632 30.7978 32.4632C27.9587 32.4632 25.649 35.0299 25.649 38.1838ZM14.3072 22.7684C13.2875 22.7684 12.4268 23.8916 12.4268 25.2196C12.4268 26.5487 13.2874 27.6719 14.3072 27.6719C15.3269 27.6719 16.1887 26.5487 16.1887 25.2196C16.1887 23.8916 15.3269 22.7684 14.3072 22.7684ZM30.8004 35.7315C29.7807 35.7315 28.9199 36.8547 28.9199 38.1838C28.9199 39.5118 29.7806 40.635 30.8004 40.635C31.8201 40.635 32.6819 39.5118 32.6819 38.1838C32.6819 36.8547 31.8201 35.7315 30.8004 35.7315Z" fill="#FFFEFE"/>
</svg>
