<svg width="59" height="59" viewBox="0 0 59 59" fill="none" xmlns="http://www.w3.org/2000/svg">
<g id="Icon" clip-path="url(#clip0_57_686)">
<g id="Group">
<path id="Vector" d="M26.3574 45.0078H33.1543V58.8281H26.3574V45.0078Z" fill="#FFFEFE"/>
<path id="Vector_2" d="M14.4668 58.8281H22.9603V41.6094H36.554V58.8281H45.0879V0.828125H14.4668V58.8281ZM38.2533 7.625H41.6517V11.0234H38.2533V7.625ZM38.2533 14.4219H41.6517V17.8203H38.2533V14.4219ZM38.2533 21.2188H41.6517V24.6172H38.2533V21.2188ZM38.2533 28.0156H41.6517V31.4141H38.2533V28.0156ZM38.2533 34.8125H41.6517V38.2109H38.2533V34.8125ZM31.4564 7.625H34.8548V11.0234H31.4564V7.625ZM31.4564 14.4219H34.8548V17.8203H31.4564V14.4219ZM31.4564 21.2188H34.8548V24.6172H31.4564V21.2188ZM31.4564 28.0156H34.8548V31.4141H31.4564V28.0156ZM31.4564 34.8125H34.8548V38.2109H31.4564V34.8125ZM24.6595 7.625H28.0579V11.0234H24.6595V7.625ZM24.6595 14.4219H28.0579V17.8203H24.6595V14.4219ZM24.6595 21.2188H28.0579V24.6172H24.6595V21.2188ZM24.6595 28.0156H28.0579V31.4141H24.6595V28.0156ZM24.6595 34.8125H28.0579V38.2109H24.6595V34.8125ZM17.8626 7.625H21.2611V11.0234H17.8626V7.625ZM17.8626 14.4219H21.2611V17.8203H17.8626V14.4219ZM17.8626 21.2188H21.2611V24.6172H17.8626V21.2188ZM17.8626 28.0156H21.2611V31.4141H17.8626V28.0156ZM17.8626 34.8125H21.2611V38.2109H17.8626V34.8125Z" fill="#FFFEFE"/>
<path id="Vector_3" d="M48.4082 14.4219H58.7579V58.8281H48.4082V14.4219Z" fill="#FFFEFE"/>
<path id="Vector_4" d="M0.755859 14.4219H11.064V58.8281H0.755859V14.4219Z" fill="#FFFEFE"/>
</g>
</g>
<defs>
<clipPath id="clip0_57_686">
<rect width="58" height="58" fill="white" transform="translate(0.755859 0.828125)"/>
</clipPath>
</defs>
</svg>
