<svg width="52" height="52" viewBox="0 0 52 52" fill="none" xmlns="http://www.w3.org/2000/svg">
<path id="Icon" d="M38.3961 22.0705C53.8262 6.28548 52.1505 1.97267 51.1418 0.962365C50.1331 -0.0479424 45.7275 -1.826 29.9674 13.6284L11.2523 6.12949C10.6984 5.90739 10.0651 6.03754 9.64219 6.46111L5.41754 10.6924C4.72249 11.3886 4.87096 12.5581 5.74863 13.0591L21.8904 22.0405C18.1927 26.1076 14.8179 30.1159 12.2291 33.527H4.36103C3.96501 33.527 3.58522 33.6846 3.30521 33.965L1.19289 36.0807C0.826742 36.4474 0.677177 36.9774 0.795773 37.4825C0.913374 37.9846 1.28569 38.3926 1.77661 38.558L7.63711 40.5146C6.911 42.0228 6.52732 43.5393 7.52987 44.5434C8.53241 45.5475 10.0465 45.1633 11.5524 44.436L13.5059 50.3058C13.6684 50.794 14.0742 51.1702 14.5795 51.2881C15.0839 51.4069 15.613 51.2571 15.9792 50.8904L18.0915 48.7747C18.3715 48.4943 18.5288 48.1139 18.5288 47.7173V39.8368C21.9346 37.2438 25.9365 33.8637 29.9972 30.1603L38.9643 46.3275C39.4751 47.2215 40.6442 47.3433 41.3273 46.6591L45.552 42.4278C45.9749 42.0042 46.1049 41.3699 45.8831 40.8152L38.3961 22.0705Z" fill="#FFFEFE"/>
</svg>
