<svg width="53" height="53" viewBox="0 0 53 53" fill="none" xmlns="http://www.w3.org/2000/svg">
<path id="Icon" d="M26.7559 0.328125C12.4189 0.328125 0.755859 11.9911 0.755859 26.3281C0.755859 40.6651 12.4189 52.3281 26.7559 52.3281C41.0928 52.3281 52.7559 40.6651 52.7559 26.3281C52.7559 11.9911 41.0928 0.328125 26.7559 0.328125ZM39.1211 39.7764C38.6986 40.1989 38.144 40.4116 37.5893 40.4116C37.0347 40.4116 36.4797 40.1989 36.0576 39.7764L25.2241 28.9434C24.8167 28.5383 24.5893 27.9876 24.5893 27.4116V13.3281C24.5893 12.13 25.5597 11.1616 26.7559 11.1616C27.952 11.1616 28.9224 12.13 28.9224 13.3281V26.5146L39.1211 36.7129C39.9681 37.5603 39.9681 38.9294 39.1211 39.7764Z" fill="#FFFEFE"/>
</svg>
