<svg width="22" height="16" viewBox="0 0 22 16" fill="none" xmlns="http://www.w3.org/2000/svg">
<path id="Vector" d="M20.873 3.17875C20.7537 2.73578 20.5202 2.3319 20.1959 2.00752C19.8715 1.68314 19.4676 1.44965 19.0246 1.33042C17.3933 0.888916 10.8381 0.888916 10.8381 0.888916C10.8381 0.888916 4.28287 0.888916 2.65155 1.33042C2.20857 1.44965 1.80469 1.68314 1.48031 2.00752C1.15594 2.3319 0.922446 2.73578 0.803213 3.17875C0.498609 4.84245 0.350792 6.53107 0.361708 8.22239C0.350792 9.9137 0.498609 11.6023 0.803213 13.266C0.922446 13.709 1.15594 14.1129 1.48031 14.4372C1.80469 14.7616 2.20857 14.9951 2.65155 15.1143C4.28287 15.5559 10.8381 15.5559 10.8381 15.5559C10.8381 15.5559 17.3933 15.5559 19.0246 15.1143C19.4676 14.9951 19.8715 14.7616 20.1959 14.4372C20.5202 14.1129 20.7537 13.709 20.873 13.266C21.1776 11.6023 21.3254 9.9137 21.3145 8.22239C21.3254 6.53107 21.1776 4.84245 20.873 3.17875ZM8.74282 11.3653V5.07947L14.1831 8.22239L8.74282 11.3653Z" fill="white"/>
</svg>
