<svg width="22" height="18" viewBox="0 0 22 18" fill="none" xmlns="http://www.w3.org/2000/svg">
<path id="Vector" d="M21.3825 2.73696C20.6143 3.08617 19.7861 3.31565 18.9281 3.42541C19.8061 2.8966 20.4846 2.05849 20.8038 1.05076C19.9757 1.54963 19.0578 1.89885 18.0899 2.0984C17.3017 1.24033 16.1942 0.741455 14.9371 0.741455C12.5923 0.741455 10.6767 2.65714 10.6767 5.02181C10.6767 5.36104 10.7166 5.6903 10.7864 5.9996C7.23442 5.82001 4.07155 4.11385 1.9663 1.52968C1.59713 2.15826 1.3876 2.8966 1.3876 3.67484C1.3876 5.16149 2.13591 6.47852 3.2933 7.22684C2.5849 7.22684 1.92639 7.02729 1.34769 6.72796V6.75789C1.34769 8.83321 2.82436 10.5693 4.77995 10.9584C4.1521 11.1302 3.49295 11.1542 2.85429 11.0283C3.12529 11.8788 3.65602 12.6231 4.37189 13.1564C5.08776 13.6897 5.95276 13.9853 6.8453 14.0016C5.33234 15.1993 3.45693 15.8467 1.52728 15.8374C1.18805 15.8374 0.848814 15.8175 0.509579 15.7776C2.40531 16.9948 4.66022 17.7032 7.07478 17.7032C14.9371 17.7032 19.2573 11.1779 19.2573 5.52068C19.2573 5.33111 19.2573 5.15151 19.2473 4.96194C20.0855 4.36329 20.8038 3.605 21.3825 2.73696Z" fill="white"/>
</svg>
