<svg width="20" height="19" viewBox="0 0 20 19" fill="none" xmlns="http://www.w3.org/2000/svg">
<path id="Vector" d="M4.53644 2.23869C4.53618 2.76793 4.32569 3.27539 3.95127 3.64943C3.57685 4.02347 3.06919 4.23346 2.53995 4.23319C2.01071 4.23293 1.50325 4.02243 1.1292 3.64802C0.755162 3.2736 0.545176 2.76593 0.545441 2.23669C0.545706 1.70745 0.756199 1.19999 1.13062 0.825951C1.50503 0.451909 2.0127 0.241923 2.54194 0.242188C3.07118 0.242452 3.57864 0.452946 3.95268 0.827362C4.32672 1.20178 4.53671 1.70945 4.53644 2.23869ZM4.59631 5.71086H0.605306V18.2027H4.59631V5.71086ZM10.9021 5.71086H6.93105V18.2027H10.8622V11.6475C10.8622 7.99571 15.6215 7.65648 15.6215 11.6475V18.2027H19.5626V10.2905C19.5626 4.13441 12.5185 4.3639 10.8622 7.38708L10.9021 5.71086Z" fill="white"/>
</svg>
